<?xml version="1.0" encoding="UTF-8"?>
<svg xmlns="http://www.w3.org/2000/svg" viewBox="0 0 512 512">
  <defs>
    <linearGradient id="gold" x1="0" y1="0" x2="1" y2="1">
      <stop offset="0%" stop-color="#E6C35C"/>
      <stop offset="100%" stop-color="#C99A1A"/>
    </linearGradient>
  </defs>

  <!-- Laurel -->
  <g fill="#0F3D2E">
    <ellipse cx="118" cy="330" rx="10" ry="18" transform="rotate(-35 118 330)"/>
    <ellipse cx="100" cy="300" rx="10" ry="18" transform="rotate(-25 100 300)"/>
    <ellipse cx="90" cy="265" rx="10" ry="18" transform="rotate(-10 90 265)"/>
    <ellipse cx="90" cy="225" rx="10" ry="18" transform="rotate(5 90 225)"/>
    <ellipse cx="102" cy="190" rx="10" ry="18" transform="rotate(20 102 190)"/>
    <ellipse cx="120" cy="160" rx="10" ry="18" transform="rotate(35 120 160)"/>

    <ellipse cx="394" cy="330" rx="10" ry="18" transform="rotate(35 394 330)"/>
    <ellipse cx="412" cy="300" rx="10" ry="18" transform="rotate(25 412 300)"/>
    <ellipse cx="422" cy="265" rx="10" ry="18" transform="rotate(10 422 265)"/>
    <ellipse cx="422" cy="225" rx="10" ry="18" transform="rotate(-5 422 225)"/>
    <ellipse cx="410" cy="190" rx="10" ry="18" transform="rotate(-20 410 190)"/>
    <ellipse cx="392" cy="160" rx="10" ry="18" transform="rotate(-35 392 160)"/>
  </g>

  <!-- Shield -->
  <path d="M256 60
           L360 100
           V220
           C360 310 305 370 256 402
           C207 370 152 310 152 220
           V100 Z"
        fill="#0F3D2E"
        stroke="url(#gold)"
        stroke-width="12"/>

  <!-- Torch -->
  <rect x="248" y="118" width="16" height="74" rx="6" fill="url(#gold)"/>
  <path d="M256 82
           C286 102 282 132 256 140
           C230 132 226 102 256 82Z"
        fill="#F2B632"/>

  <!-- Book -->
  <path d="M185 220
           Q220 205 250 220
           V300
           Q220 286 185 300Z"
        fill="#fff"/>
  <path d="M327 220
           Q292 205 262 220
           V300
           Q292 286 327 300Z"
        fill="#fff"/>
  <line x1="256" y1="220" x2="256" y2="300" stroke="#0F3D2E" stroke-width="4"/>
  <line x1="205" y1="242" x2="238" y2="238" stroke="#0F3D2E" stroke-width="2"/>
  <line x1="205" y1="258" x2="238" y2="254" stroke="#0F3D2E" stroke-width="2"/>
  <line x1="274" y1="238" x2="307" y2="242" stroke="#0F3D2E" stroke-width="2"/>
  <line x1="274" y1="254" x2="307" y2="258" stroke="#0F3D2E" stroke-width="2"/>

  <!-- Star -->
  <polygon points="256,430 262,444 278,444 265,454 270,470 256,460 242,470 247,454 234,444 250,444"
           fill="url(#gold)"/>
</svg>
